HIERARCHY
ROOT root
{
	OFFSET 0.000000 0.000000 0.000000
	CHANNELS 6 Xposition Yposition Zposition Zrotation Yrotation Xrotation
	JOINT lhip
	{
		OFFSET 0.058581 -0.082280 -0.017664
		CHANNELS 3 Zrotation Yrotation Xrotation
		JOINT lknee
		{
			OFFSET 0.043451 -0.386469 0.008037
			CHANNELS 3 Zrotation Yrotation Xrotation
			JOINT lankle
			{
				OFFSET -0.014790 -0.426874 -0.037428
				CHANNELS 3 Zrotation Yrotation Xrotation
				JOINT ltoe
				{
					OFFSET 0.041054 -0.060286 0.122042
					CHANNELS 3 Zrotation Yrotation Xrotation
					End Site
					{
						OFFSET 0.000000 0.000000 0.000000
					}
				}
			}
		}
	}
	JOINT rhip
	{
		OFFSET -0.060310 -0.090513 -0.013543
		CHANNELS 3 Zrotation Yrotation Xrotation
		JOINT rknee
		{
			OFFSET -0.043257 -0.383688 -0.004843
			CHANNELS 3 Zrotation Yrotation Xrotation
			JOINT rankle
			{
				OFFSET 0.019056 -0.420046 -0.034562
				CHANNELS 3 Zrotation Yrotation Xrotation
				JOINT rtoe
				{
					OFFSET -0.034840 -0.062106 0.130323
					CHANNELS 3 Zrotation Yrotation Xrotation
					End Site
					{
						OFFSET 0.000000 0.000000 0.000000
					}
				}
			}
		}
	}
	JOINT lowerback
	{
		OFFSET 0.004439 0.124404 -0.038385
		CHANNELS 3 Zrotation Yrotation Xrotation
		JOINT upperback
		{
			OFFSET 0.004488 0.137956 0.026820
			CHANNELS 3 Zrotation Yrotation Xrotation
			JOINT chest
			{
				OFFSET -0.002265 0.056032 0.002855
				CHANNELS 3 Zrotation Yrotation Xrotation
				JOINT lowerneck
				{
					OFFSET -0.013390 0.211636 -0.033468
					CHANNELS 3 Zrotation Yrotation Xrotation
					JOINT upperneck
					{
						OFFSET 0.010113 0.088937 0.050410
						CHANNELS 3 Zrotation Yrotation Xrotation
						End Site
						{
							OFFSET 0.000000 0.000000 0.000000
						}
					}
				}
				JOINT lclavicle
				{
					OFFSET 0.071702 0.114000 -0.018898
					CHANNELS 3 Zrotation Yrotation Xrotation
					JOINT lshoulder
					{
						OFFSET 0.122921 0.045205 -0.019046
						CHANNELS 3 Zrotation Yrotation Xrotation
						JOINT lelbow
						{
							OFFSET 0.255332 -0.015649 -0.022946
							CHANNELS 3 Zrotation Yrotation Xrotation
							JOINT lwrist
							{
								OFFSET 0.265709 0.012698 -0.007375
								CHANNELS 3 Zrotation Yrotation Xrotation
								End Site
								{
									OFFSET 0.000000 0.000000 0.000000
								}
							}
						}
					}
				}
				JOINT rclavicle
				{
					OFFSET -0.082954 0.112472 -0.023707
					CHANNELS 3 Zrotation Yrotation Xrotation
					JOINT rshoulder
					{
						OFFSET -0.113228 0.046853 -0.008472
						CHANNELS 3 Zrotation Yrotation Xrotation
						JOINT relbow
						{
							OFFSET -0.260127 -0.014369 -0.031269
							CHANNELS 3 Zrotation Yrotation Xrotation
							JOINT rwrist
							{
								OFFSET -0.269108 0.006794 -0.006027
								CHANNELS 3 Zrotation Yrotation Xrotation
								End Site
								{
									OFFSET 0.000000 0.000000 0.000000
								}
							}
						}
					}
				}
			}
		}
	}
}
MOTION
Frames: 13
Frame Time: 0.033333
0.373325 0.317583 0.995608 -17.022912 -2.793668 88.226151 0.730977 2.013156 -15.495659 -3.598441 7.955661 52.472500 3.542512 12.492235 -27.628500 0.000000 -0.000000 0.000000 -7.853861 -1.871894 -23.585352 0.943342 -4.288799 33.123191 8.121893 -4.201467 -13.877097 0.000000 -0.000000 0.000000 6.374662 -1.413933 24.538037 4.141957 -0.543770 0.407746 1.233838 -0.602329 2.727172 -0.180871 8.178422 -8.829757 -4.760214 8.644441 -9.795506 -26.027056 0.551894 0.084225 -46.198343 -2.863793 7.579781 6.632890 -72.081715 19.844406 3.821319 -13.299582 -1.362915 21.879532 -1.967809 -1.227505 41.140907 2.279893 6.526019 -77.237323 64.602872 -56.985507 -8.817595 10.280624 1.720671 
0.372821 0.287112 0.983297 -17.750789 -3.247764 87.487520 4.073701 2.265511 -18.415385 -3.005712 8.057252 50.915895 3.590330 13.208250 -29.430283 0.000000 -0.000000 0.000000 -8.257766 -2.218331 -23.911327 0.772586 -3.202238 38.230801 5.418013 -5.332659 -15.363385 0.000000 -0.000000 0.000000 5.801426 -1.305948 26.253227 3.685131 -0.281354 0.971283 0.972563 -0.187734 2.610900 0.310398 8.869679 -9.471477 -4.545857 8.553441 -9.565550 -27.263490 0.267272 -0.022818 -43.642108 -2.751066 5.665077 18.317831 -72.493334 8.255623 4.861252 -13.160214 -1.893688 23.292318 0.093923 -1.031333 38.889256 4.165435 5.070077 -72.736241 60.874638 -52.872345 -12.199778 11.477491 4.939519 
0.369751 0.256235 0.965847 -16.868273 -3.204482 86.225745 8.064055 2.486636 -21.298218 -3.087758 7.294520 48.793458 2.503544 12.872157 -30.323823 0.000000 -0.000000 0.000000 -8.383095 -2.605251 -23.068474 0.549364 -2.629442 43.369742 3.773982 -7.451300 -19.371913 0.000000 -0.000000 0.000000 5.064516 -1.181240 27.702688 3.678719 -0.338524 1.921062 0.926482 -0.108169 2.375340 0.085388 10.199068 -10.718142 -4.910356 7.494220 -8.267997 -28.654312 -0.706064 -0.054630 -40.330207 -3.471595 3.634957 31.768545 -69.722906 -6.418087 7.029684 -12.705843 -3.200755 26.528134 3.103877 -1.048933 35.341528 6.557246 3.382140 -63.737757 54.249265 -46.452332 -16.504209 12.258872 6.616831 
0.363979 0.224842 0.948321 -14.642604 -3.174983 84.755663 11.210068 2.881333 -24.156455 -3.806133 5.335998 45.482682 0.716463 11.462501 -29.749474 0.000000 -0.000000 0.000000 -8.432097 -3.281691 -20.922854 -0.158701 -2.488925 47.664096 2.778111 -9.867063 -24.381891 0.000000 -0.000000 0.000000 4.035100 -0.644403 28.889539 3.524008 -0.770113 2.677561 0.914320 -0.323301 2.078338 -1.173630 12.056488 -11.633959 -5.698166 6.386179 -7.463080 -28.178485 -2.044363 -0.343383 -36.712324 -4.715205 1.141253 38.480469 -64.438763 -14.986645 8.737016 -11.448997 -4.362028 28.411419 5.727898 -1.281408 35.293335 9.522304 2.046646 -54.504020 46.280465 -41.629367 -17.333829 9.857891 3.552630 
0.355662 0.192227 0.932904 -11.680344 -3.371525 83.737143 12.732426 3.603315 -27.121047 -4.876272 1.726068 40.788053 -0.780994 9.547153 -27.437625 0.000000 -0.000000 0.000000 -8.336105 -4.260494 -18.325946 -1.246814 -2.352958 50.876435 1.792843 -12.637981 -29.163152 0.000000 -0.000000 0.000000 2.497280 0.408308 29.595492 2.771907 -1.537370 2.158241 0.579137 -0.283100 2.307343 -2.880679 13.816971 -11.963240 -5.498041 5.553303 -7.150232 -25.696907 -3.960914 -0.653363 -31.795486 -5.914620 -1.870852 38.495070 -57.957565 -19.006800 11.688643 -9.920396 -6.117115 27.760166 7.135532 -1.490538 40.586450 9.998789 3.017920 -48.964181 42.348461 -40.252687 -16.579484 6.132527 -4.188889 
0.345480 0.156375 0.921303 -8.102023 -3.350403 83.445412 13.229191 3.944783 -29.904843 -5.609540 -2.873583 34.817793 -1.836044 8.152153 -24.473443 0.000000 -0.000000 0.000000 -7.696243 -5.440059 -15.209649 -2.402619 -2.432005 52.290123 0.841406 -16.178262 -33.152927 0.000000 -0.000000 0.000000 0.664274 2.057558 29.284546 1.909918 -2.632112 1.570524 0.155324 -0.008586 2.751010 -5.042684 14.917501 -12.411645 -4.116368 4.023639 -7.306336 -23.017713 -6.749681 -0.865463 -25.194338 -7.040380 -5.035940 35.201320 -50.830236 -22.013301 16.155377 -8.560322 -7.964983 27.558785 8.034999 -0.570345 46.116735 6.694572 5.985530 -47.180950 45.481623 -37.664817 -16.538790 6.202392 -7.913631 
0.334632 0.115817 0.913835 -4.257776 -3.290894 83.643349 13.449588 3.368694 -31.832958 -5.943378 -5.901520 28.392717 -3.106585 7.544783 -22.754039 0.000000 -0.000000 0.000000 -6.851061 -6.612664 -11.332412 -3.609757 -3.088858 51.874212 0.597463 -19.524198 -36.277057 0.000000 -0.000000 0.000000 -1.827675 4.232696 28.299801 1.182683 -4.003097 1.439805 -0.125446 0.050365 3.180253 -7.258433 16.029571 -12.920266 -2.652721 1.525948 -8.015255 -20.070430 -9.265806 -1.619965 -18.475227 -7.944716 -8.044870 30.634447 -44.221018 -23.083794 19.776716 -7.945003 -7.708500 27.925112 8.250068 0.050724 50.279458 2.826554 9.787465 -45.340830 53.078700 -30.646867 -16.102651 7.835806 -6.624986 
0.324713 0.071677 0.907670 -0.689985 -3.304714 84.035881 13.557705 2.337983 -33.066247 -6.263653 -6.671204 23.955295 -4.832052 6.972457 -21.937875 0.000000 -0.000000 0.000000 -6.030068 -7.561722 -7.113816 -4.925226 -4.399379 50.585025 1.337139 -21.898507 -38.619421 0.000000 -0.000000 0.000000 -4.774483 6.182292 27.382927 0.165257 -5.350275 1.259866 -0.555065 0.121307 3.547508 -9.034534 16.917024 -12.718781 -1.006819 -1.200143 -9.126739 -16.482053 -11.147634 -2.895909 -12.592762 -8.326033 -10.705089 26.343100 -38.770163 -22.434014 21.325802 -8.731922 -5.727066 27.169006 8.517450 -0.221461 54.441509 0.220054 13.583077 -38.776129 61.195246 -19.891793 -14.726115 8.954382 -6.644488 
0.317870 0.025811 0.899333 1.891223 -3.175002 84.403976 13.579856 1.354291 -34.413246 -7.124277 -7.616702 24.925104 -5.823943 5.828280 -20.766907 0.000000 -0.000000 0.000000 -5.199748 -8.514643 -3.201763 -6.162517 -5.725321 49.823161 2.231357 -23.573297 -40.077806 0.000000 -0.000000 0.000000 -7.033768 8.010171 26.842002 -1.352841 -6.273564 1.259670 -1.505983 0.613623 3.446258 -10.516884 16.928575 -11.536689 0.976073 -3.578573 -10.699444 -12.827608 -13.099260 -4.290122 -7.689953 -8.261431 -12.750968 23.229843 -35.185652 -20.757201 21.396143 -9.448704 -3.095353 25.411160 9.937337 -0.406138 58.021419 -1.662055 16.448386 -27.822713 68.017565 -5.560122 -13.205574 9.226520 -7.735299 
0.315635 -0.019834 0.887725 3.729092 -2.893155 84.765279 14.335092 -0.646227 -37.422934 -9.454396 -8.609548 33.471844 -6.137479 3.915527 -20.617072 0.000000 -0.000000 0.000000 -4.330092 -8.952041 -0.946437 -7.466583 -6.235431 52.157577 2.231801 -25.052957 -39.412546 0.000000 -0.000000 0.000000 -8.003899 9.781107 26.553887 -3.424351 -7.171253 2.586923 -2.563715 1.403973 2.173450 -14.076140 15.320347 -11.349882 5.026811 -4.733372 -11.258825 -10.256785 -16.246247 -6.909615 -4.158219 -6.726055 -13.649234 22.630921 -34.320545 -20.385073 18.339040 -9.593190 0.184604 23.725430 13.288206 -0.312745 59.255780 -3.209416 17.258619 -10.490477 73.435108 13.679086 -17.757688 8.929921 -5.981425 
0.316518 -0.063581 0.874637 5.805177 -3.490061 85.057938 15.130028 -3.492036 -40.630184 -11.802172 -6.679491 41.324357 -4.729453 3.550359 -21.088076 0.000000 -0.000000 0.000000 -4.378869 -8.048537 -1.262697 -7.892397 -5.559188 59.266466 2.848236 -25.555989 -35.363635 0.000000 -0.000000 0.000000 -9.585679 11.834911 26.867499 -4.650408 -7.029485 4.587558 -3.382610 1.451608 0.613518 -15.841441 13.344310 -10.820048 6.083735 -6.241154 -12.193575 -9.430066 -18.406699 -7.599450 -2.496170 -8.470768 -14.670966 26.250201 -34.463605 -24.407520 17.865328 -9.371626 2.545277 23.674946 15.433384 -0.267063 57.646079 -3.495893 18.675097 -2.542957 76.267892 23.396744 -17.538178 10.200127 -2.844098 
0.318255 -0.105373 0.861601 8.713831 -4.107247 84.553369 14.889566 -4.996558 -41.926654 -13.624628 -5.194429 47.007385 -1.970025 2.407704 -23.177831 0.000000 -0.000000 0.000000 -4.810186 -6.768210 -2.203593 -7.906323 -5.606959 67.878607 2.823093 -24.762562 -26.744907 0.000000 -0.000000 0.000000 -10.552552 12.732874 29.036248 -5.580672 -6.504666 5.938391 -3.662726 1.199850 -0.661507 -16.978377 10.844297 -10.500928 6.253020 -6.929947 -12.765476 -10.914890 -20.491161 -7.483973 -2.573127 -10.621751 -15.504364 33.334890 -36.604695 -30.681816 17.673507 -9.066501 4.192617 24.404532 17.574367 0.064316 55.507571 -3.467542 18.989868 -6.556130 76.058054 18.721812 -18.372665 10.857050 -0.479436 
0.318697 -0.143353 0.849843 12.706569 -4.256133 83.912963 14.692519 -5.946771 -42.712432 -14.882333 -3.875213 51.303711 0.204492 0.322497 -25.799893 0.000000 -0.000000 0.000000 -5.331938 -6.530274 -3.980557 -8.118516 -6.232834 75.988563 1.916542 -21.742351 -15.467065 0.000000 -0.000000 0.000000 -10.257659 12.386658 32.743378 -6.191231 -6.329448 5.227768 -3.584220 0.574844 -0.794263 -17.097677 8.036674 -10.893534 6.566622 -6.846515 -12.658403 -13.100629 -21.485919 -7.151659 -6.282938 -13.564629 -15.644060 43.091562 -39.960948 -36.428589 16.915721 -8.581153 5.033070 24.236652 18.536586 -0.210776 55.269887 -2.721968 17.581858 -12.516381 71.256958 11.273694 -17.483775 10.108309 -0.086357 
